<svg width="34" height="34" viewBox="0 0 34 34" fill="none" xmlns="http://www.w3.org/2000/svg">
<path fill-rule="evenodd" clip-rule="evenodd" d="M10.3176 21.5776C9.35123 20.1668 9.7124 18.2345 11.1231 17.2681L14.4231 15.0075L13.3493 13.4401L10.0493 15.7007C7.77237 17.2605 7.19034 20.3744 8.75017 22.6514C10.31 24.9283 13.4239 25.5103 15.7009 23.9505L19.0008 21.6899L17.927 20.1224L14.6271 22.3831C13.2163 23.3495 11.2841 22.9883 10.3176 21.5776ZM14.2652 20.0854L20.8651 15.5642L19.7348 13.9142L13.1349 18.4355L14.2652 20.0854ZM14.9993 12.3097L18.2992 10.0491C20.5762 8.48931 23.6901 9.07134 25.2499 11.3483C26.8097 13.6253 26.2277 16.7392 23.9507 18.299L20.6508 20.5596L19.577 18.9921L22.8769 16.7315C24.2877 15.7651 24.6488 13.8328 23.6824 12.4221C22.716 11.0114 20.7837 10.6502 19.373 11.6166L16.073 13.8772L14.9993 12.3097Z" fill="white"/>
</svg>
